<svg width="16" height="16" viewBox="0 0 16 16" fill="none" xmlns="http://www.w3.org/2000/svg">
<path d="M8 2.66667C4.74733 2.66667 2 5.41401 2 8.66667C2 11.9193 4.74733 14.6667 8 14.6667C11.2527 14.6667 14 11.9193 14 8.66667C14 5.41401 11.2527 2.66667 8 2.66667ZM8 13.3333C5.47067 13.3333 3.33333 11.196 3.33333 8.66667C3.33333 6.13734 5.47067 4.00001 8 4.00001C10.5293 4.00001 12.6667 6.13734 12.6667 8.66667C12.6667 11.196 10.5293 13.3333 8 13.3333Z" fill="#FB70A2"/>
<path d="M8.66671 7.99999V5.33333H7.33337V7.99999V9.33333H8.66671H11.3334V7.99999H8.66671Z" fill="#FB70A2"/>
<path d="M11.5226 2.4713L12.464 1.52714L14.4704 3.52774L13.5289 4.4719L11.5226 2.4713Z" fill="#FB70A2"/>
<path d="M4.46533 2.47134L2.47179 4.4706L1.52764 3.52914L3.52117 1.52989L4.46533 2.47134Z" fill="#FB70A2"/>
</svg>
